<svg width="386" height="308" viewBox="0 0 386 308" fill="none" xmlns="http://www.w3.org/2000/svg">
<path d="M156.814 66.283C157.052 65.4913 157.447 64.9768 158.001 64.74C158.16 64.66 158.357 64.6209 158.594 64.6209C158.911 64.6209 159.267 64.7204 159.662 64.9181C160.059 65.1154 160.415 65.4518 160.73 65.9271C160.968 66.2425 161.086 66.5593 161.086 66.8758C161.086 67.0343 161.047 67.1925 160.968 67.3511C160.256 69.407 159.504 71.7799 158.713 74.471C157.923 77.1604 157.033 79.948 156.043 82.8368C155.053 85.7239 153.946 88.5327 152.72 91.2612C151.493 93.9901 150.13 96.4427 148.626 98.618C147.123 100.795 145.422 102.554 143.524 103.899C141.625 105.245 139.528 105.916 137.234 105.916C133.357 105.916 130.331 104.572 128.156 101.882C125.98 99.1928 124.359 95.85 123.29 91.8543C122.223 87.8597 121.55 83.5881 121.274 79.0385C120.996 74.4906 120.857 70.3559 120.857 66.6389C120.937 64.5817 120.976 63.2769 120.976 62.7233C120.897 62.3265 120.818 62.1288 120.74 62.1288H120.621C120.384 62.2088 119.948 62.307 119.316 62.426C118.682 62.5451 117.99 62.6629 117.238 62.7819C116.487 62.901 115.715 63.0188 114.924 63.1379C114.133 63.2573 113.381 63.3551 112.669 63.4351C110.216 63.7505 107.785 63.9286 105.371 63.9691C102.959 64.0082 100.328 64.0281 97.4804 64.0281C97.4005 66.3222 97.2419 69.0315 97.0051 72.1571C96.7682 75.281 96.471 78.4457 96.1151 81.6496C95.7592 84.8535 95.3051 87.9187 94.7501 90.8466C94.1965 93.7728 93.5251 96.1863 92.733 98.0839C91.7043 100.617 90.4385 102.692 88.9362 104.314C87.4322 105.936 85.6927 107.064 83.7137 107.696C82.6865 108.013 81.6184 108.171 80.5098 108.171C79.7979 108.171 78.7703 108.032 77.4249 107.756C76.0808 107.479 74.7353 106.628 73.3896 105.204C71.8087 103.543 70.8192 102.198 70.4238 101.17C70.1856 100.617 70.0678 100.102 70.0678 99.627C70.0678 99.3106 70.166 98.9347 70.3637 98.5002C70.5628 98.0644 71.0169 97.7688 71.7287 97.6103C72.2041 97.5303 72.6777 97.4912 73.1527 97.4912C73.3896 97.4912 73.7259 97.5303 74.1618 97.6103C74.5964 97.6889 75.0126 97.8866 75.4081 98.203C75.6449 98.3616 75.764 98.5198 75.764 98.6784C75.764 98.8366 75.684 98.9938 75.5258 99.152C75.3686 99.3106 75.289 99.4688 75.289 99.627C75.289 99.7856 75.3686 100.062 75.5258 100.458C75.684 100.854 75.9617 101.329 76.3567 101.882C76.7521 102.436 77.1489 102.931 77.5439 103.365C77.9393 103.799 78.2953 104.136 78.6121 104.374C78.8489 104.611 79.0466 104.73 79.2048 104.73H79.3239C79.6407 104.572 80.1147 103.978 80.7479 102.95C81.3802 101.921 81.8947 100.973 82.2897 100.102C83.3986 97.5698 84.3669 93.7728 85.1982 88.7105C86.0278 83.6467 86.7204 77.3973 87.274 69.9606C87.3536 68.5369 87.3931 67.5488 87.3931 66.9952V66.4008H87.274C87.0372 66.4008 86.5618 66.6784 85.85 67.232C84.4259 68.2606 83.2401 69.7632 82.2897 71.7408C81.421 73.323 80.7874 75.0637 80.392 76.9627C80.0752 78.3867 79.917 79.5725 79.917 80.5229V81.3524C80.0752 81.7491 80.1342 82.0055 80.0948 82.1246C80.0556 82.2423 79.9561 82.3813 79.7979 82.5395C79.4825 82.7764 79.0074 82.8955 78.3739 82.8955H77.8999C77.3462 82.8955 76.8712 82.8172 76.4762 82.6586C76.0008 82.5004 75.684 82.1836 75.5258 81.7083C75.3686 81.3932 75.289 80.9179 75.289 80.2843V79.5725C75.3686 77.4364 75.8621 75.1029 76.7717 72.5717C77.6829 70.0405 78.7703 67.983 80.0361 66.4008C80.9848 65.215 82.1524 64.1864 83.5359 63.316C84.9205 62.4456 86.2859 61.812 87.6299 61.417L87.749 58.3322C87.829 57.0665 87.8681 55.7211 87.8681 54.2971C87.8681 52.8731 87.829 51.0146 87.749 48.7203C87.6704 46.4259 87.5513 43.7365 87.3931 40.6517C87.2345 37.5656 86.9977 34.5395 86.6809 31.5724C86.3641 28.6067 86.0082 25.976 85.6131 23.6817C84.8223 18.6979 83.9522 14.6628 83.0019 11.578C82.0529 8.49323 80.9848 6.23833 79.7979 4.81435C79.1657 4.02393 78.6907 3.50947 78.3739 3.27129C78.2167 3.19269 78.0176 3.15355 77.7808 3.15355C77.5439 3.15355 77.2666 3.19269 76.9498 3.27129C76.1594 3.42951 75.2299 3.80499 74.1618 4.39941C73.0941 4.99214 71.9655 5.70431 70.78 6.53521C69.5928 7.36511 68.4056 8.31544 67.2198 9.38317C66.0326 10.4512 64.9253 11.5389 63.8967 12.6461C62.0773 14.7036 60.3368 17.1953 58.6759 20.1219C57.0134 23.0498 55.5306 26.2328 54.2257 29.6748C52.9194 33.1155 51.8513 36.7148 51.0217 40.4736C50.1904 44.2311 49.735 47.9285 49.6564 51.5682V53.5849C49.6564 56.5129 49.9731 59.4786 50.6054 62.4847C51.239 65.4913 52.4653 68.2606 54.2847 70.7918C54.7597 71.504 55.3525 72.1962 56.0647 72.8689C56.7765 73.5403 57.3301 74.0351 57.7255 74.3516C58.2006 74.747 58.6759 74.9446 59.1496 74.9446C59.7032 74.9446 60.2777 74.4906 60.8705 73.5807C61.4636 72.6712 61.8391 71.2263 61.9976 69.2487C62.0773 68.6951 62.1167 68.1415 62.1167 67.5879C62.1167 66.1639 61.919 64.4623 61.5236 62.4847C61.1272 60.5072 60.3368 58.8072 59.1496 57.3832C58.5173 56.6714 58.2006 56.077 58.2006 55.6033C58.2006 55.4448 58.2792 55.2474 58.4374 55.0089C58.596 54.7721 59.0318 54.4553 59.7437 54.0603C60.8509 53.6649 62.0773 53.4871 63.4217 53.5262C64.7671 53.5654 65.9543 53.8626 66.9816 54.4162C68.1688 55.1283 69.0783 56.4133 69.7119 58.2732C70.3441 60.1317 70.6805 62.1288 70.7196 64.265C70.7605 66.4008 70.5024 68.4779 69.9488 70.4946C69.3951 72.513 68.5639 74.0351 67.4566 75.0637C66.3494 76.1709 65.0839 76.9627 63.6599 77.4364C62.3144 77.9117 61.0095 78.1485 59.7437 78.1485C59.5055 78.1485 58.9714 78.129 58.1418 78.0895C57.3106 78.0504 56.1838 77.714 54.7597 77.0805C53.3357 76.4486 52.0294 75.5387 50.8435 74.3516C48.2323 71.5039 46.4524 67.7856 45.5037 63.1969C44.7915 59.9536 44.4356 56.5129 44.4356 52.8731C44.4356 51.4491 44.5337 49.0961 44.7314 45.8136C44.9288 42.5298 45.8596 38.2187 47.5205 32.8787C49.1813 27.5387 51.3371 22.614 53.9875 18.1052C56.6379 13.5951 59.7437 9.73942 63.304 6.53521C66.8639 3.33134 70.7406 1.25423 74.9327 0.305588C75.8817 0.0670768 77.1489 -0.0307585 78.7298 0.00837482C80.312 0.0475081 81.5387 0.225635 82.4088 0.542412C87.0763 1.88779 90.5185 5.96204 92.733 12.7652C94.3156 18.0657 95.5419 24.3743 96.4123 31.6915C97.2827 39.0091 97.7173 47.0595 97.7173 55.8402V59.993C100.249 59.9144 102.425 59.8345 104.244 59.7562C106.064 59.6762 107.805 59.5585 109.465 59.4C111.128 59.2417 112.847 58.9445 114.628 58.51C116.407 58.0741 118.604 57.4224 121.214 56.552C121.452 53.8626 121.708 51.0737 121.986 48.1862C122.262 45.2991 122.579 42.4906 122.935 39.7618C123.29 37.0315 123.666 34.4218 124.061 31.9284C124.457 29.4366 124.854 27.2418 125.249 25.3425C126.751 18.3811 128.611 13.3579 130.826 10.2731C132.803 7.58371 135.295 6.23833 138.302 6.23833H139.252C140.279 6.31795 141.052 6.49608 141.566 6.77204C142.079 7.04968 142.654 7.50376 143.286 8.13731C145.343 10.4317 146.806 13.0411 147.677 15.969C148.389 18.6588 148.745 21.3873 148.745 24.157C148.745 24.3938 148.706 25.3833 148.626 27.1227C148.547 28.8631 148.013 31.3356 147.024 34.5395C146.036 37.7434 144.751 40.8086 143.168 43.7365C141.586 46.6627 139.745 49.3734 137.65 51.8654C135.553 54.3575 133.357 56.4329 131.064 58.0954C130.984 59.3608 130.906 61.2585 130.826 63.791V67.8248C130.826 69.2487 130.826 71.1477 130.826 73.5207C130.826 75.895 130.925 78.7426 131.123 82.0645C131.321 85.3875 131.696 88.4133 132.25 91.1421C132.803 93.8724 133.576 96.1667 134.564 98.0252C135.553 99.8837 136.799 100.893 138.302 101.051H138.658C139.608 101.051 140.616 100.556 141.684 99.5683C142.752 98.5788 143.88 97.1549 145.066 95.2964C146.253 93.4365 147.42 91.3007 148.567 88.8886C149.714 86.4752 150.803 83.9635 151.83 81.3524C152.859 78.7426 153.788 76.1318 154.619 73.5207C155.45 70.9109 156.182 68.4974 156.814 66.283ZM89.8319 204.17C90.1487 203.933 90.5438 203.794 91.0188 203.755C91.4928 203.714 91.9287 203.755 92.3237 203.872C92.7191 203.992 93.0359 204.17 93.2728 204.406C93.431 204.486 93.5109 204.604 93.5109 204.762C93.5109 204.921 93.431 205.079 93.2728 205.237C91.6902 207.61 89.1788 209.707 85.7376 211.526C82.2968 213.347 78.0443 214.81 72.9803 215.917C72.9803 217.341 72.9803 218.568 72.9803 219.596C72.9803 220.624 72.9217 221.613 72.8026 222.562C72.6848 223.512 72.5263 224.5 72.3286 225.529C72.1295 226.558 71.7948 227.743 71.3195 229.089C70.1323 232.649 68.6887 235.338 66.9887 237.158C65.287 238.978 63.0124 240.362 60.1644 241.312C59.5322 241.549 58.9377 241.707 58.3841 241.786C57.8305 241.865 56.9995 241.905 55.8923 241.905C55.3387 241.983 54.8242 242.024 54.3491 242.024C53.1633 242.024 52.0756 241.846 51.0861 241.49C50.098 241.134 49.0498 240.481 47.9408 239.532C47.229 238.898 46.7354 238.245 46.4581 237.574C46.1818 236.901 46.0431 236.011 46.0431 234.904C46.0431 233.4 46.3599 231.976 46.9922 230.632C47.6257 229.287 48.6935 227.823 50.1962 226.241C51.6202 224.739 53.0834 223.413 54.5873 222.266C56.09 221.118 57.4745 220.15 58.7403 219.358C60.0058 218.568 61.0544 217.954 61.8853 217.519C62.7166 217.085 63.1707 216.788 63.2506 216.629V216.392C63.2506 216.076 63.1902 215.483 63.0725 214.613C62.9534 213.742 62.7166 212.635 62.3607 211.289C62.0044 209.944 61.5685 208.639 61.0544 207.374C60.5399 206.108 60.0058 205.277 59.4522 204.881L54.4683 207.374C53.1242 208.006 51.8179 208.639 50.5521 209.273C49.2866 209.905 48.3376 210.3 47.704 210.458L47.1112 215.324C46.6362 219.833 45.8653 224.026 44.7972 227.902C43.7291 231.779 42.5224 234.746 41.1769 236.802C40.7815 237.435 40.2279 238.147 39.5161 238.938C38.8039 239.729 38.1312 240.322 37.4989 240.717C36.4703 241.51 35.244 242.063 33.8199 242.38C32.8709 242.617 31.9209 242.736 30.9719 242.736C30.4182 242.736 29.8646 242.695 29.311 242.617C27.6488 242.458 26.1853 241.786 24.9198 240.6C23.654 239.413 23.0208 237.949 23.0208 236.209C23.0208 235.497 23.1203 234.627 23.3176 233.598C23.5153 232.57 23.6935 231.898 23.8517 231.581C24.0885 231.186 24.5244 230.908 25.1566 230.75L25.9879 230.632C26.3047 230.632 26.641 230.671 26.997 230.75C27.3529 230.83 27.7284 230.988 28.1238 231.225C28.2824 231.383 28.3606 231.502 28.3606 231.581C28.3606 231.739 28.3215 231.859 28.2429 231.937C28.0847 232.095 27.9261 232.59 27.7679 233.42C27.6093 234.251 27.531 235.022 27.531 235.734C27.6893 237.238 28.1629 238.384 28.9551 239.176C29.587 239.808 30.0229 240.125 30.26 240.125C30.4183 240.125 30.7742 239.808 31.3278 239.176C34.4926 235.695 36.7071 225.964 37.9729 209.985C38.0525 208.718 38.1116 206.681 38.1507 203.872C38.1916 201.064 38.2111 198.078 38.2111 194.914C38.2111 191.749 38.172 188.704 38.092 185.777C38.0134 182.849 37.9335 180.635 37.8552 179.131C37.7752 178.577 37.6771 177.39 37.558 175.571C37.4389 173.752 37.2607 171.655 37.0239 169.282C36.7871 166.908 36.4507 164.416 36.0148 161.806C35.5803 159.195 35.0463 156.803 34.4127 154.627C33.7808 152.451 33.0099 150.652 32.0987 149.228C31.1891 147.804 30.1406 147.092 28.9551 147.092C26.3438 147.092 23.654 148.437 20.8845 151.127C18.1164 153.816 15.5642 157.317 13.2306 161.629C10.8967 165.94 8.97811 170.804 7.47547 176.224C5.97317 181.643 5.18102 187.043 5.10275 192.422V193.846C5.10275 198.75 5.85373 203.497 7.35637 208.085C8.86036 212.674 11.5893 216.51 15.5446 219.596C16.5733 218.409 17.4241 216.985 18.0969 215.324C18.7682 213.662 19.3623 212.021 19.8768 210.399C20.3913 208.778 20.865 207.254 21.3008 205.83C21.7354 204.406 22.23 203.338 22.7836 202.627C23.179 202.073 23.8125 201.717 24.683 201.559H25.2757C25.9093 201.559 26.5611 201.678 27.2338 201.914C27.9065 202.153 28.5192 202.587 29.0728 203.221C29.4692 203.774 29.6669 204.406 29.6669 205.118V205.713C29.4287 207.61 29.0529 209.588 28.5388 211.645C28.0256 213.703 27.2925 215.581 26.3438 217.282C25.3948 218.982 24.188 220.387 22.7249 221.494C21.2617 222.602 19.4605 223.156 17.3246 223.156C13.6061 223.156 10.5212 222.048 8.06857 219.833C5.61691 217.619 3.73741 214.652 2.43246 210.933C1.12617 207.215 0.35529 202.982 0.118457 198.237C0.0385007 197.128 -0.000610352 196.06 -0.000610352 195.033C-0.000610352 191.315 0.335719 187.28 1.00843 182.929C1.6798 178.577 2.84744 174.049 4.5083 169.341C6.17052 164.635 8.24635 160.422 10.7385 156.704C13.2306 152.985 16.0983 149.999 19.3427 147.745C22.5862 145.49 26.1461 144.363 30.0228 144.363C33.3449 144.363 35.9953 145.193 37.9729 146.855C39.9519 148.516 41.6911 151.245 43.1951 155.043C43.5118 155.913 43.8678 157 44.2632 158.305C44.6586 159.61 45.0145 160.995 45.3313 162.458C45.6481 163.923 45.924 165.406 46.1609 166.908C46.3991 168.412 46.5968 169.756 46.7553 170.943C46.9135 171.893 47.0313 172.367 47.1112 172.367V172.249C47.1898 172.169 47.784 171.062 48.8912 168.926C50.7106 165.287 52.8269 161.924 55.2391 158.839C57.6527 155.755 60.5203 153.421 63.8434 151.839C64.9506 151.285 65.9206 150.91 66.7505 150.71C67.5814 150.513 68.5905 150.375 69.7764 150.296H70.8445C75.3548 150.296 78.5588 152.273 80.4565 156.228C81.1686 157.574 81.6437 158.8 81.8805 159.907C81.9604 160.699 81.9996 161.727 81.9996 162.992V165.01C81.9199 167.463 81.6632 169.658 81.2287 171.596C80.7928 173.535 80.1005 175.769 79.1515 178.301C77.8061 181.781 75.848 185.48 73.2776 189.396C70.7055 193.312 67.9573 196.813 65.0306 199.898C64.397 200.53 64.0411 200.926 63.9625 201.085V201.203C63.9625 201.282 64.002 201.322 64.0802 201.322C66.5332 202.192 68.3523 203.755 69.5395 206.008C70.7267 208.263 71.6363 210.497 72.2685 212.713C74.4843 212.555 76.5011 212.12 78.3206 211.409C80.1396 210.696 81.8022 209.905 83.3045 209.034C84.8085 208.164 86.0939 207.274 87.1617 206.364C88.2298 205.455 89.1197 204.723 89.8319 204.17ZM57.3163 236.565C58.4236 235.378 59.354 233.895 60.1053 232.115C60.8567 230.335 61.4707 228.614 61.9443 226.953C62.4193 225.292 62.7753 223.828 63.0124 222.562C63.0921 221.772 63.1315 221.218 63.1315 220.901V220.664C62.973 220.664 62.4585 220.94 61.5884 221.494C60.718 222.048 59.7103 222.8 58.5622 223.749C57.4158 224.698 56.2873 225.727 55.1801 226.834C54.0728 227.942 53.2419 228.97 52.6883 229.92C51.8179 231.502 51.3833 233.083 51.3833 234.666C51.3833 236.248 52.1738 237.514 53.7561 238.464C53.9929 238.622 54.1919 238.701 54.3491 238.701C54.5074 238.701 54.8242 238.542 55.2992 238.226L57.3163 236.565ZM56.9601 198.83C57.2769 198.355 57.7522 197.682 58.3841 196.813C59.0177 195.943 59.6904 194.973 60.4026 193.905C61.1144 192.837 61.8266 191.749 62.5384 190.642C63.2506 189.535 63.8434 188.584 64.3188 187.794C66.85 183.522 68.7477 179.567 70.0145 175.927C71.2803 172.289 72.1099 168.531 72.5067 164.654C72.5853 163.784 72.6244 162.992 72.6244 162.28C72.6244 158.72 71.8731 155.991 70.3708 154.092C70.1323 153.697 69.9545 153.48 69.8368 153.441C69.7177 153.402 69.4596 153.421 69.0645 153.5C68.1155 153.658 66.9479 154.153 65.5647 154.982C64.1798 155.814 62.8147 156.901 61.4707 158.247C58.7009 160.936 56.2091 164.377 53.9929 168.57C51.7784 172.762 49.9984 177.39 48.653 182.454C48.4961 182.849 48.3966 183.225 48.3572 183.581C48.318 183.937 48.2772 184.51 48.2381 185.302C48.1989 186.092 48.1794 187.201 48.1794 188.625C48.1794 190.049 48.1794 192.027 48.1794 194.558C48.1794 198.118 48.1594 200.807 48.119 202.627C48.0798 204.446 47.9817 205.791 47.8231 206.661L50.5521 204.881C51.4225 204.248 52.4906 203.319 53.7561 202.093C55.0219 200.866 56.09 199.779 56.9601 198.83ZM118.074 206.069C117.125 208.678 116.137 211.409 115.108 214.257C114.079 217.104 112.992 219.833 111.844 222.444C110.697 225.054 109.471 227.408 108.166 229.504C106.86 231.6 105.455 233.163 103.953 234.192C103.082 234.824 101.936 235.18 100.512 235.26C100.037 235.338 99.5616 235.378 99.088 235.378C98.2176 235.378 97.3863 235.26 96.5958 235.022C95.2504 234.627 93.965 233.954 92.7387 233.005C91.5124 232.056 90.5829 230.947 89.9497 229.682C88.6053 227.072 87.9325 222.998 87.9325 217.46V215.68C88.0911 212.279 88.3084 209.134 88.5857 206.247C88.862 203.358 89.3174 200.451 89.9497 197.525C90.5829 194.519 91.1564 192.461 91.6706 191.354C92.1851 190.247 92.9559 189.455 93.9846 188.981C94.6182 188.664 95.3304 188.467 96.1208 188.387L97.308 188.269C97.7031 188.269 98.1784 188.328 98.7321 188.447C99.2857 188.565 99.8393 188.762 100.393 189.04C100.947 189.316 101.263 189.653 101.342 190.049C101.422 190.128 101.461 190.247 101.461 190.405C101.461 190.483 101.422 190.701 101.342 191.057C101.263 191.413 101.144 191.868 100.986 192.422C100.67 193.371 100.314 194.894 99.9176 196.991C99.5225 199.086 99.2057 201.044 98.9689 202.865C98.732 204.684 98.5343 206.661 98.3758 208.798C98.2176 210.933 98.0985 213.03 98.0199 215.086V218.053C98.0199 219.002 98.0394 220.13 98.0789 221.435C98.118 222.74 98.2176 223.868 98.3758 224.817C98.5343 226.083 98.8694 227.328 99.3835 228.555C99.898 229.781 100.471 230.83 101.105 231.7C102.607 230.276 104.012 228.516 105.318 226.419C106.623 224.322 107.849 222.069 108.996 219.655C110.144 217.242 111.192 214.73 112.141 212.12C113.09 209.509 113.96 206.938 114.752 204.406C114.831 204.09 115.108 203.892 115.582 203.813H115.938C116.255 203.813 116.591 203.872 116.947 203.992C117.303 204.111 117.64 204.328 117.956 204.645C118.115 204.881 118.193 205.118 118.193 205.357C118.193 205.594 118.154 205.83 118.074 206.069ZM104.784 177.826C104.546 179.329 103.636 180.753 102.054 182.098C100.471 183.442 98.7712 184.788 96.9518 186.133C95.6063 184.471 94.4191 182.81 93.3919 181.149C92.4415 179.882 91.9678 178.617 91.9678 177.351C91.9678 177.034 92.0069 176.758 92.0855 176.521C92.2438 175.651 92.68 174.939 93.3919 174.385C93.9455 173.989 94.5382 173.791 95.1718 173.791C95.3304 173.791 95.5277 173.831 95.7649 173.91C96.5554 173.989 97.1495 174.227 97.5448 174.622C97.9399 175.017 98.2962 175.61 98.6126 176.402C99.088 175.769 99.6025 175.255 100.156 174.859C100.551 174.622 101.026 174.503 101.58 174.503H102.054C102.924 174.661 103.636 175.057 104.19 175.69C104.586 176.165 104.784 176.719 104.784 177.351V177.826ZM149.165 204.881C149.324 204.406 149.66 204.111 150.173 203.992C150.688 203.872 151.222 203.833 151.775 203.872C152.33 203.912 152.804 204.051 153.199 204.289C153.437 204.526 153.555 204.762 153.555 205.001V205.237C152.765 207.61 151.657 210.458 150.233 213.781C148.809 217.104 147.208 220.348 145.427 223.512C143.647 226.675 141.709 229.484 139.612 231.937C137.515 234.39 135.44 235.931 133.382 236.565C132.433 236.881 131.444 237.079 130.415 237.158C130.02 237.238 129.625 237.277 129.229 237.277C128.596 237.277 127.884 237.198 127.093 237.04C126.301 236.881 125.491 236.545 124.66 236.031C123.829 235.516 123.177 234.785 122.702 233.836C121.832 232.095 121.317 230.157 121.159 228.021C121.08 227.151 121.041 226.241 121.041 225.292C121.041 224.105 121.139 222.662 121.337 220.96C121.534 219.26 121.931 217.321 122.524 215.147C123.117 212.97 123.731 210.933 124.363 209.034C123.809 209.114 123.158 209.173 122.405 209.212C121.654 209.252 120.902 209.292 120.151 209.332C119.398 209.371 118.707 209.39 118.074 209.39C117.362 209.39 116.808 209.351 116.413 209.273C113.88 208.876 111.983 207.888 110.717 206.305C109.608 204.881 108.937 203.141 108.699 201.085C108.62 200.293 108.581 199.502 108.581 198.711C108.581 197.367 108.739 195.724 109.055 193.787C109.371 191.849 110.024 189.653 111.013 187.201C112.002 184.748 113.168 182.454 114.514 180.318C115.859 178.182 117.342 176.322 118.964 174.741C120.585 173.159 122.268 172.011 124.007 171.299C125.116 170.824 126.499 170.587 128.161 170.587C129.744 170.587 130.969 171.102 131.839 172.13C132.868 173.396 133.46 174.939 133.619 176.758V177.707C133.619 179.211 133.421 180.95 133.026 182.929C132.631 184.907 131.978 187.002 131.068 189.218C130.158 191.432 129.169 193.549 128.101 195.567C127.033 197.584 125.965 199.442 124.897 201.144C123.829 202.844 122.899 204.17 122.109 205.118L127.211 204.762C127.686 204.684 128.398 204.604 129.347 204.526L130.653 204.406C131.049 204.406 131.543 204.467 132.136 204.584C132.729 204.704 133.304 204.96 133.857 205.357C134.253 205.594 134.45 205.989 134.45 206.542C134.45 206.781 134.411 207.018 134.331 207.254C133.857 208.917 133.323 210.894 132.729 213.189C132.136 215.483 131.641 217.776 131.246 220.07C130.929 221.732 130.771 223.315 130.771 224.817C130.771 225.45 130.811 226.458 130.89 227.843C130.969 229.228 131.483 230.591 132.433 231.937C133.936 230.988 135.558 229.406 137.298 227.19C139.039 224.975 140.68 222.542 142.223 219.892C143.765 217.242 145.15 214.552 146.376 211.823C147.603 209.095 148.532 206.781 149.165 204.881ZM118.905 201.797C119.932 200.926 121.139 199.245 122.524 196.753C123.909 194.26 125.135 191.61 126.203 188.803C127.271 185.994 128.003 183.364 128.398 180.911C128.477 180.199 128.517 179.567 128.517 179.013C128.517 177.589 128.161 176.56 127.449 175.927H127.33C127.093 175.927 126.381 176.817 125.194 178.597C124.007 180.377 122.78 182.632 121.515 185.361C120.249 188.091 119.3 190.959 118.667 193.965C118.351 195.389 118.193 196.694 118.193 197.881C118.193 199.305 118.43 200.61 118.905 201.797ZM196.276 166.671V166.315C196.276 165.525 196.554 165.01 197.107 164.772C197.424 164.615 197.739 164.535 198.056 164.535C198.451 164.535 198.907 164.654 199.421 164.891C199.935 165.128 200.509 165.603 201.141 166.315C201.616 166.949 201.853 167.62 201.853 168.332V168.688C201.537 171.062 200.587 173.06 199.005 174.681C197.424 176.303 195.405 177.609 192.953 178.597C190.501 179.587 187.771 180.279 184.764 180.674C182.233 180.991 179.702 181.149 177.171 181.149C176.696 181.149 175.549 181.149 173.728 181.149C171.909 181.149 169.556 180.95 166.669 180.555C163.78 180.16 161.268 179.606 159.132 178.894C158.737 182.217 158.48 185.915 158.361 189.989C158.242 194.063 158.144 197.762 158.064 201.085C158.064 203.221 158.084 205.87 158.124 209.034C158.164 212.199 158.361 215.423 158.717 218.706C159.073 221.989 159.627 225.114 160.378 228.08C161.131 231.047 162.218 233.4 163.642 235.141C165.54 233.717 167.162 231.72 168.507 229.148C169.853 226.578 171.019 223.828 172.009 220.901C172.997 217.975 173.808 215.067 174.44 212.18C175.074 209.292 175.588 206.859 175.983 204.881C176.063 204.486 176.34 204.17 176.815 203.933C177.052 203.853 177.329 203.813 177.644 203.813C177.803 203.813 178.041 203.833 178.357 203.872C178.673 203.912 179.029 204.09 179.425 204.406C179.821 204.723 180.019 205.158 180.019 205.713C179.385 208.639 178.634 211.923 177.764 215.561C176.893 219.2 175.864 222.681 174.679 226.004C173.492 229.326 172.107 232.214 170.524 234.666C168.943 237.118 167.123 238.622 165.067 239.176C164.196 239.491 163.287 239.649 162.336 239.649C161.941 239.649 161.288 239.591 160.378 239.472C159.469 239.354 158.461 238.978 157.352 238.345C154.742 236.842 152.765 234.212 151.419 230.454C150.074 226.697 149.164 222.286 148.69 217.222C148.374 213.504 148.215 209.509 148.215 205.237C148.215 203.813 148.235 201.302 148.274 197.703C148.315 194.102 148.493 189.494 148.808 183.878L149.402 176.165C147.345 175.69 145.406 175.334 143.587 175.097H142.875C141.293 175.097 139.71 175.571 138.128 176.521C137.021 177.233 136.033 178.222 135.162 179.487C134.45 180.437 134.094 181.149 134.094 181.623C134.094 181.781 134.134 181.9 134.212 181.979C134.292 182.059 134.331 182.137 134.331 182.217C134.331 182.374 134.212 182.533 133.975 182.691C133.738 182.849 133.382 182.969 132.907 183.047H132.314C131.997 183.047 131.582 183.008 131.068 182.929C130.554 182.849 130.178 182.691 129.94 182.454C129.703 182.217 129.584 181.9 129.584 181.505C129.584 180.635 130.059 179.448 131.008 177.945C132.036 176.283 133.243 174.998 134.628 174.088C136.012 173.179 137.515 172.506 139.137 172.072C140.759 171.636 142.48 171.418 144.299 171.418C146.04 171.418 147.859 171.536 149.758 171.774C150.074 169.717 150.312 167.7 150.47 165.723C150.629 163.745 150.827 161.965 151.063 160.382C151.222 159.432 151.814 158.8 152.843 158.484C153.318 158.325 153.833 158.247 154.386 158.247C154.86 158.247 155.513 158.345 156.345 158.542C157.174 158.741 158.025 159.156 158.895 159.788C159.686 160.422 160.083 161.134 160.083 161.924V162.162L159.37 174.029C160.794 174.345 162.673 174.72 165.006 175.156C167.34 175.591 169.853 175.927 172.543 176.165C174.679 176.402 176.854 176.521 179.068 176.521C179.624 176.521 180.731 176.5 182.392 176.461C184.053 176.422 186.011 176.085 188.266 175.453C190.521 174.82 192.399 173.811 193.903 172.427C195.405 171.043 196.197 169.124 196.276 166.671ZM221.223 223.044L221.196 223.096C219.219 227.012 217.616 229.94 216.39 231.878C215.165 233.817 214.117 235.022 213.247 235.497C212.376 235.972 211.387 236.209 210.279 236.209H209.448C207.47 236.209 205.77 235.655 204.346 234.548C202.606 233.203 201.459 231.423 200.904 229.208C200.35 227.231 200.074 225.095 200.074 222.8C200.074 222.562 200.094 221.713 200.133 220.248C200.172 218.785 200.45 216.649 200.964 213.84C201.478 211.031 201.972 208.263 202.447 205.535C202.922 202.804 203.278 200.254 203.515 197.881C203.595 197.169 203.634 196.496 203.634 195.863C203.634 194.28 203.436 192.897 203.04 191.71C198.926 193.766 195.347 197.208 192.301 202.034C189.255 206.859 187.1 212.635 185.834 219.358C185.754 219.755 185.715 220.268 185.715 220.901C185.715 221.218 185.715 221.713 185.715 222.384C185.715 223.057 185.734 223.927 185.774 224.995C185.814 226.063 185.834 227.012 185.834 227.843C185.834 228.674 185.793 229.208 185.715 229.445C185.319 230.474 184.212 231.027 182.392 231.106H181.799C180.058 231.106 178.792 230.73 178.002 229.979C177.21 229.228 176.578 227.902 176.103 226.004C175.232 222.76 174.679 218.805 174.442 214.137C174.362 212.397 174.323 210.656 174.323 208.917C174.323 205.91 174.462 202.31 174.738 198.118C175.015 193.924 175.628 189.159 176.578 183.819C177.527 178.479 178.773 173.455 180.316 168.748C181.858 164.04 183.698 159.829 185.834 156.111C187.97 152.393 190.382 149.584 193.072 147.685C195.604 145.865 198.255 144.719 201.023 144.244C201.972 144.085 202.842 144.007 203.634 144.007C205.375 144.007 206.917 144.324 208.262 144.956C209.528 145.589 210.596 146.479 211.466 147.626C212.337 148.774 212.988 150.098 213.424 151.6C213.859 153.104 214.117 154.647 214.195 156.228V157.415C214.195 158.523 214.117 159.631 213.958 160.738C213.405 163.745 212.237 166.81 210.457 169.934C208.677 173.06 206.521 176.007 203.99 178.775C201.459 181.545 198.689 184.017 195.683 186.192C192.676 188.367 189.75 190.008 186.902 191.117L185.24 191.71C184.844 194.163 184.588 196.813 184.469 199.661C184.35 202.509 184.252 205.316 184.172 208.085C184.884 206.345 186.11 204.13 187.851 201.441C189.592 198.75 191.589 196.238 193.844 193.905C196.098 191.571 198.531 189.811 201.142 188.625C202.328 188.07 203.515 187.794 204.702 187.794C206.046 187.794 207.312 188.111 208.499 188.743C209.528 189.296 210.299 190.72 210.813 193.015C211.328 195.309 211.625 197.998 211.703 201.085C211.783 202.587 211.822 204.17 211.822 205.83C211.822 207.493 211.762 209.628 211.644 212.238C211.525 214.849 211.406 217.619 211.288 220.545C211.169 223.471 211.11 225.885 211.11 227.784C211.11 229.682 211.308 230.632 211.703 230.632C212.02 230.632 212.791 229.623 214.017 227.606C215.244 225.588 216.609 223.196 218.111 220.426C219.213 218.398 220.303 216.339 221.384 214.246L221.434 213.662C221.751 211.052 222.166 208.481 222.68 205.95C223.195 203.418 223.868 201.085 224.697 198.949C225.528 196.813 226.518 194.934 227.665 193.312C228.811 191.69 230.176 190.483 231.759 189.693C233.261 188.901 235.002 188.506 236.979 188.506C238.957 188.506 240.62 188.862 241.964 189.574L245.524 192.778C246.632 185.578 248.135 179.428 250.034 174.325C251.932 169.222 254.267 164.574 257.035 160.382C259.171 157.296 261.327 154.845 263.502 153.024C265.679 151.205 268.032 149.861 270.563 148.991C272.462 148.279 274.321 147.923 276.14 147.923C276.695 147.923 277.644 148.002 278.988 148.16C280.334 148.318 281.639 148.991 282.905 150.176C284.013 151.205 284.803 152.551 285.278 154.212C285.515 155.24 285.634 156.347 285.634 157.535C285.634 158.247 285.554 159.295 285.398 160.678C285.239 162.063 284.725 163.863 283.854 166.078C282.984 168.293 281.836 170.509 280.412 172.723C279.068 174.701 277.486 176.739 275.667 178.835C273.847 180.931 271.868 182.929 269.732 184.827C267.596 186.726 265.342 188.467 262.968 190.049C260.595 191.63 258.261 192.897 255.967 193.846C255.73 193.924 255.572 194.063 255.492 194.26C255.413 194.458 255.335 195.033 255.255 195.982C255.096 197.564 255.018 199.186 255.018 200.846C255.018 201.954 255.077 203.556 255.196 205.652C255.314 207.749 255.691 210.202 256.323 213.01C256.956 215.818 257.886 218.449 259.112 220.901C260.339 223.354 261.9 225.371 263.799 226.953C266.093 226.319 268.13 225.054 269.91 223.156C271.69 221.257 273.233 219.18 274.538 216.926C275.844 214.671 276.912 212.436 277.742 210.221C278.573 208.006 279.226 206.225 279.7 204.881C279.859 204.406 280.136 204.09 280.531 203.933L281.124 203.813C281.362 203.813 281.639 203.872 281.955 203.992C282.272 204.111 282.589 204.289 282.905 204.526C283.063 204.762 283.143 205.04 283.143 205.357V205.713C282.43 207.532 281.639 209.588 280.768 211.882C279.899 214.177 278.91 216.451 277.802 218.706C276.695 220.96 275.389 223.037 273.886 224.936C272.383 226.834 270.643 228.258 268.664 229.208C266.528 230.236 264.392 230.75 262.256 230.75C260.2 230.75 258.103 230.236 255.967 229.208C253.436 227.942 251.576 226.241 250.39 224.105C249.203 221.969 248.096 219.399 247.067 216.392C244.299 221.455 241.924 225.509 239.947 228.555C237.969 231.6 235.952 233.439 233.895 234.073C232.708 234.468 231.561 234.666 230.454 234.666C229.188 234.666 227.962 234.429 226.775 233.954C225.272 233.48 224.124 232.688 223.334 231.581C222.542 230.474 221.949 228.891 221.554 226.834C221.395 226.28 221.296 225.43 221.256 224.283L221.223 223.044ZM185.596 188.269V188.862C185.676 188.862 185.754 188.862 185.834 188.862C185.913 188.862 186.505 188.545 187.614 187.913C189.75 186.726 191.945 185.202 194.2 183.344C196.454 181.484 198.57 179.428 200.548 177.173C202.527 174.92 204.266 172.545 205.77 170.053C207.273 167.561 208.341 165.05 208.974 162.519C209.369 161.253 209.587 159.671 209.626 157.771C209.667 155.872 209.489 154.292 209.092 153.024C208.46 151.047 207.629 149.386 206.6 148.041C205.651 146.933 204.781 146.38 203.99 146.38H203.634C202.527 146.538 201.301 147.151 199.955 148.218C198.611 149.286 197.502 150.533 196.632 151.956C194.496 155.201 192.479 159.927 190.58 166.137C188.682 172.348 187.02 179.725 185.596 188.269ZM352.855 65.0959C353.252 64.7791 353.725 64.6405 354.279 64.6813C354.834 64.7204 355.288 64.8982 355.644 65.215C356 65.5304 356.198 65.9062 356.237 66.3421C356.278 66.7763 356.059 67.1925 355.585 67.5879C355.427 67.7461 355.169 67.9634 354.813 68.241C354.457 68.517 353.607 69.1701 352.262 70.1991C350.918 71.2263 348.9 72.7889 346.21 74.8856C343.521 76.9823 339.723 79.8893 334.818 83.6076L335.055 94.6432C335.293 100.261 335.451 105.64 335.53 110.782V113.392C335.53 117.664 335.352 121.976 334.996 126.326C334.64 130.678 333.987 135.048 333.038 139.439C332.089 143.829 330.665 147.963 328.766 151.84C326.71 155.954 324.574 159.138 322.358 161.392C320.143 163.647 317.334 165.407 313.933 166.673C312.112 167.385 310.056 167.819 307.761 167.977C306.971 168.057 306.218 168.097 305.506 168.097C304.004 168.097 302.619 167.938 301.353 167.621C296.053 166.198 292.256 162.796 289.961 157.417C288.696 154.569 288.062 151.285 288.062 147.567C288.062 146.618 288.162 144.68 288.359 141.753C288.557 138.825 289.803 134.712 292.097 129.411C295.736 121.026 300.364 113.274 305.981 106.154C311.599 99.0342 317.927 92.5074 324.969 86.5747C324.969 84.9125 324.969 83.3104 324.969 81.7687C324.969 80.2256 325.008 78.5844 325.087 76.8436L324.73 77.4364C323.623 79.5725 322.674 81.372 321.883 82.8368C321.092 84.2999 320.36 85.5066 319.688 86.4556C319.015 87.4042 318.363 88.1764 317.73 88.7695C317.096 89.3622 316.425 89.8963 315.713 90.3713C314.13 91.4002 312.311 91.9538 310.254 92.0321H309.305C307.564 92.0321 305.942 91.6762 304.438 90.9644C302.856 90.1736 301.631 88.9082 300.76 87.1674C299.89 85.4267 299.217 82.9741 298.742 79.8107C298.514 78.3783 298.368 76.8423 298.305 75.2024C297.722 75.808 297.116 76.3545 296.487 76.8436C295.063 77.9508 293.441 78.7426 291.622 79.2166C289.803 79.6916 287.745 79.9284 285.451 79.9284C285.294 80.0084 285.095 80.4429 284.858 81.2347C284.621 82.0251 284.265 82.9741 283.79 84.0826C283.315 85.1898 282.722 86.3362 282.01 87.5233C281.298 88.7105 280.427 89.7377 279.399 90.6081C278.45 91.4002 277.303 92.0516 275.958 92.5661C274.614 93.0806 273.229 93.4561 271.805 93.6946C270.935 93.8528 270.103 93.9314 269.313 93.9314C268.759 93.9314 268.026 93.8919 267.117 93.812C266.207 93.7337 265.278 93.4561 264.329 92.9824L263.734 92.5074C263.734 94.8018 263.617 97.3526 263.379 100.161C263.142 102.97 262.805 105.798 262.371 108.646C261.935 111.494 261.44 114.223 260.886 116.834C260.333 119.444 259.74 121.659 259.106 123.478C258.711 124.824 258.099 126.326 257.268 127.987C256.436 129.65 255.547 130.994 254.597 132.022C253.015 133.605 251.354 134.633 249.614 135.107C248.901 135.346 247.992 135.463 246.885 135.463H245.816C245.105 135.463 244.551 135.424 244.154 135.346C241.94 134.792 240.357 133.388 239.408 131.132C238.458 128.877 237.984 125.417 237.984 120.75C237.984 118.456 238.143 115.864 238.458 112.977C238.775 110.09 239.19 107.103 239.704 104.018C240.218 100.932 240.832 97.8667 241.545 94.8214C242.257 91.7757 243.008 88.9473 243.798 86.3362C244.273 84.6753 244.847 82.8955 245.52 80.9965C246.192 79.0989 246.885 77.239 247.597 75.4196C248.309 73.6006 249.04 71.8599 249.792 70.1991C250.543 68.5369 251.274 67.0735 251.987 65.808L253.054 64.0281C253.054 63.791 253.015 62.8606 252.937 61.2389C252.857 59.6172 252.759 57.8569 252.64 55.9593C252.52 54.0603 252.462 52.2804 252.462 50.6196V49.5515C252.462 48.5226 252.54 47.8894 252.698 47.6525C252.937 47.2572 253.371 46.9404 254.005 46.7035C254.637 46.4654 255.329 46.3264 256.081 46.2873C256.833 46.2481 257.585 46.2872 258.336 46.4063C259.087 46.5254 259.74 46.7427 260.294 47.0595C260.769 47.4548 261.105 48.028 261.303 48.7793C261.5 49.5306 261.679 50.2633 261.837 50.9755C263.973 48.8394 265.951 47.1381 267.77 45.8723C269.589 44.6069 271.923 43.9733 274.771 43.9733C280.942 43.9733 284.897 47.969 286.638 55.9593C286.875 57.0665 287.074 58.569 287.231 60.468L287.35 63.316C287.35 64.265 287.311 65.5108 287.231 67.0539C287.153 68.597 286.994 70.2972 286.757 72.1571C286.519 74.0152 286.243 75.5388 285.926 76.7246H286.282C288.181 76.7246 289.961 76.1514 291.622 75.0047C293.283 73.857 294.707 72.5717 295.894 71.1477C296.959 69.8712 297.831 68.6725 298.514 67.5555C298.805 63.9438 299.356 59.9606 300.166 55.6033C300.483 53.4672 300.78 52.161 301.056 51.6873C301.334 51.2123 301.907 50.8564 302.777 50.6196C303.648 50.3811 304.676 50.2829 305.862 50.3224C307.05 50.3615 307.959 50.5396 308.593 50.8564C309.146 51.0932 309.541 51.41 309.778 51.8051C309.937 52.0436 310.017 52.5172 310.017 53.229C310.017 54.1794 309.898 55.4843 309.66 57.1451C308.79 62.9206 308.354 68.0629 308.354 72.5717C308.354 76.765 308.751 80.4038 309.541 83.4886C309.778 84.5172 310.075 85.487 310.431 86.3965C310.788 87.3061 311.044 87.7601 311.202 87.7601C311.441 87.7601 311.994 87.326 312.865 86.4556C313.735 85.5852 314.486 84.754 315.118 83.9635C315.672 83.33 316.227 82.5787 316.781 81.7083C317.334 80.8379 317.966 79.8107 318.678 78.6235C319.391 77.4364 320.163 76.0323 320.992 74.4106C321.824 72.7889 322.794 70.8704 323.901 68.656L326.274 63.791C326.432 62.9206 326.59 62.1093 326.749 61.358C326.907 60.6067 327.066 59.8753 327.223 59.1631C328.331 54.5747 329.636 51.8445 331.139 50.9755C332.009 50.4205 333.118 50.1247 334.462 50.0855C335.807 50.0447 336.914 50.2633 337.785 50.7373C338.339 51.0538 338.636 51.3705 338.675 51.6873C338.714 52.0027 338.536 52.7149 338.141 53.8235C337.588 55.3257 337.073 57.3623 336.598 59.934C336.123 62.5046 335.767 65.2936 335.53 68.2998C335.371 69.1701 335.273 70.2187 335.233 71.4449C335.194 72.6712 335.135 73.8374 335.055 74.9446C334.976 76.29 334.898 77.5949 334.818 78.8604C339.17 75.6173 342.552 73.0862 344.964 71.2668C347.378 69.4464 349.138 68.1024 350.245 67.232C351.352 66.3616 352.045 65.808 352.321 65.5712C352.598 65.3327 352.777 65.1745 352.855 65.0959ZM256.086 188.506C255.928 189.93 255.848 190.72 255.848 190.879C256.086 190.879 256.679 190.562 257.628 189.93C259.685 188.743 261.722 187.299 263.74 185.599C265.757 183.898 267.676 182.098 269.495 180.199C271.314 178.301 272.977 176.322 274.479 174.266C275.983 172.209 277.208 170.231 278.158 168.332C279.187 166.276 279.899 164.377 280.295 162.636C280.611 161.212 280.768 159.749 280.768 158.247V157.296C280.69 154.053 279.78 151.878 278.039 150.771C277.722 150.533 277.327 150.415 276.852 150.415C275.587 150.415 273.886 151.483 271.75 153.619C270.168 155.201 268.724 157.001 267.418 159.018C266.113 161.034 264.669 163.586 263.087 166.671C259.607 173.713 257.272 180.991 256.086 188.506ZM244.1 211.882L245.643 209.034L245.406 206.425C245.326 205.713 245.267 204.862 245.228 203.872C245.189 202.884 245.168 202.034 245.168 201.322C245.168 200.61 245.168 200.095 245.168 199.779C245.168 199.462 245.148 199.225 245.109 199.066C245.069 198.908 244.99 198.73 244.872 198.532C244.753 198.335 244.575 198.038 244.338 197.642C243.943 197.089 243.468 196.477 242.914 195.804C242.36 195.131 241.766 194.519 241.134 193.965C240.501 193.41 239.927 192.956 239.413 192.6C238.898 192.244 238.523 192.066 238.286 192.066C238.127 192.066 237.752 192.58 237.158 193.609C236.565 194.636 236.07 195.546 235.675 196.338C234.726 198.157 233.914 200.451 233.241 203.221C232.57 205.989 232.056 208.876 231.7 211.882C231.344 214.888 231.166 217.816 231.166 220.664V221.85C231.166 224.144 231.363 226.122 231.759 227.784C232.075 228.891 232.312 229.445 232.47 229.445C232.708 229.445 233.222 229.05 234.014 228.258C234.963 227.231 235.912 226.024 236.862 224.639C237.811 223.254 238.72 221.811 239.591 220.308C240.461 218.805 241.271 217.321 242.024 215.858C242.775 214.394 243.468 213.069 244.1 211.882ZM329.66 204.289C329.74 203.972 329.977 203.794 330.372 203.755C330.769 203.714 331.144 203.755 331.5 203.872C331.856 203.992 332.152 204.209 332.39 204.526C332.549 204.762 332.627 205.001 332.627 205.237V205.475C332.152 207.057 331.52 209.193 330.728 211.882C329.937 214.572 329.067 217.361 328.118 220.248C327.168 223.136 326.16 225.826 325.092 228.318C324.024 230.81 322.976 232.649 321.947 233.836C320.84 235.18 319.336 235.931 317.438 236.09C316.805 236.17 316.172 236.209 315.539 236.209C314.352 236.209 313.244 236.05 312.216 235.734C308.656 234.627 306.402 232.015 305.452 227.902C305.136 226.716 304.898 225.292 304.74 223.63C304.583 221.969 304.503 220.189 304.503 218.29V206.781C303.554 208.678 302.386 211.072 301.002 213.959C299.618 216.846 298.075 219.694 296.374 222.503C294.673 225.312 292.913 227.804 291.094 229.979C289.273 232.154 287.493 233.439 285.754 233.836C285.2 233.994 284.567 234.073 283.854 234.073C283.379 234.073 282.609 234.033 281.54 233.954C280.472 233.875 279.582 233.717 278.87 233.48C277.051 232.847 275.706 231.878 274.835 230.572C273.965 229.267 273.411 227.428 273.174 225.054C273.096 224.342 273.055 223.63 273.055 222.918C273.055 218.172 274.401 212.635 277.091 206.305C277.802 204.565 278.653 202.884 279.641 201.263C280.631 199.64 281.619 198.137 282.609 196.753C283.598 195.368 284.606 194.182 285.634 193.193C286.663 192.205 287.612 191.473 288.482 190.998C290.065 190.128 291.865 189.672 293.881 189.633C295.9 189.594 297.461 190.008 298.57 190.879C298.807 191.037 299.163 191.452 299.638 192.125C300.112 192.797 300.606 193.549 301.121 194.38C301.635 195.211 302.13 196.021 302.604 196.813C303.079 197.603 303.435 198.237 303.671 198.711L306.52 192.659C306.599 191.788 307.153 191.037 308.182 190.405C308.499 190.247 308.973 190.088 309.606 189.93C309.923 189.85 310.238 189.811 310.555 189.811C310.872 189.811 311.267 189.85 311.742 189.93C312.216 190.008 312.75 190.206 313.344 190.523C313.937 190.839 314.392 191.274 314.708 191.829C314.946 192.224 315.085 192.837 315.124 193.668C315.163 194.499 315.183 195.389 315.183 196.338C315.183 197.287 315.144 198.237 315.064 199.186C314.985 200.135 314.907 200.926 314.827 201.559C314.748 202.746 314.668 204.308 314.59 206.247C314.51 208.184 314.471 210.182 314.471 212.238V215.205C314.471 216.154 314.471 217.321 314.471 218.706C314.471 220.089 314.51 221.218 314.59 222.088C314.748 224.62 315.163 226.675 315.836 228.258C316.509 229.84 317.24 231.027 318.031 231.818C319.376 230.947 320.681 229.208 321.947 226.597C323.213 223.986 324.361 221.198 325.388 218.231C326.417 215.264 327.307 212.436 328.058 209.746C328.811 207.057 329.345 205.237 329.66 204.289ZM284.447 230.276C286.268 229.011 287.968 227.328 289.551 225.232C291.133 223.137 292.596 220.842 293.942 218.35C295.286 215.858 296.571 213.306 297.798 210.696C299.024 208.085 300.231 205.633 301.418 203.338C300.231 201.282 299.222 199.6 298.392 198.296C297.561 196.991 296.434 195.704 295.01 194.439C293.901 195.467 292.735 196.891 291.509 198.711C290.282 200.53 289.116 202.587 288.007 204.881C284.764 211.606 283.143 217.658 283.143 223.037C283.143 224.936 283.242 226.319 283.439 227.19C283.637 228.06 283.974 229.089 284.447 230.276ZM382.349 204.17C382.745 203.853 383.219 203.714 383.773 203.755C384.328 203.794 384.782 203.972 385.138 204.289C385.494 204.604 385.692 204.98 385.731 205.416C385.771 205.85 385.553 206.266 385.079 206.661C384.921 206.82 384.663 207.037 384.307 207.314C383.951 207.591 383.101 208.244 381.756 209.273C380.412 210.3 378.393 211.863 375.704 213.959C373.014 216.056 369.217 218.963 364.311 222.681L364.548 233.717C364.787 239.334 364.945 244.713 365.024 249.855V252.465C365.024 256.737 364.846 261.05 364.49 265.4C364.134 269.752 363.481 274.122 362.532 278.513C361.583 282.903 360.159 287.037 358.259 290.914C356.203 295.027 354.067 298.212 351.851 300.465C349.637 302.721 346.828 304.481 343.426 305.746C341.606 306.458 339.55 306.893 337.255 307.051C336.465 307.131 335.712 307.17 335 307.17C333.498 307.17 332.113 307.012 330.847 306.695C325.546 305.271 321.749 301.87 319.455 296.491C318.189 293.643 317.556 290.359 317.556 286.64C317.556 285.692 317.655 283.753 317.853 280.827C318.05 277.899 319.297 273.785 321.591 268.485C325.229 260.1 329.858 252.348 335.475 245.228C341.093 238.108 347.421 231.581 354.463 225.648C354.463 223.986 354.463 222.384 354.463 220.842C354.463 219.299 354.502 217.658 354.58 215.917L354.224 216.51C353.117 218.646 352.168 220.446 351.376 221.91C350.586 223.373 349.854 224.58 349.181 225.529C348.509 226.478 347.857 227.25 347.223 227.843C346.59 228.436 345.919 228.97 345.206 229.445C343.624 230.474 341.805 231.027 339.747 231.106H338.798C337.057 231.106 335.436 230.75 333.932 230.038C332.35 229.247 331.125 227.982 330.254 226.241C329.384 224.5 328.711 222.048 328.236 218.884C327.921 216.907 327.762 214.73 327.762 212.357C327.762 207.374 328.394 201.48 329.66 194.677C329.977 192.541 330.274 191.235 330.55 190.761C330.827 190.286 331.401 189.93 332.271 189.693C333.142 189.455 334.17 189.357 335.356 189.396C336.543 189.435 337.453 189.613 338.086 189.93C338.64 190.167 339.035 190.483 339.272 190.879C339.431 191.117 339.511 191.591 339.511 192.303C339.511 193.253 339.391 194.558 339.154 196.218C338.284 201.994 337.848 207.137 337.848 211.645C337.848 215.839 338.245 219.477 339.035 222.562C339.272 223.591 339.569 224.56 339.925 225.47C340.281 226.38 340.538 226.834 340.696 226.834C340.934 226.834 341.488 226.399 342.358 225.529C343.229 224.659 343.98 223.828 344.612 223.037C345.166 222.404 345.721 221.652 346.274 220.782C346.828 219.912 347.46 218.884 348.172 217.697C348.884 216.51 349.657 215.106 350.486 213.484C351.317 211.863 352.287 209.944 353.395 207.729L355.767 202.865C355.926 201.994 356.084 201.183 356.243 200.432C356.401 199.68 356.559 198.949 356.716 198.237C357.825 193.648 359.13 190.918 360.633 190.049C361.503 189.494 362.612 189.198 363.956 189.159C365.301 189.118 366.408 189.337 367.279 189.811C367.832 190.128 368.129 190.444 368.169 190.761C368.208 191.076 368.03 191.788 367.635 192.897C367.081 194.399 366.567 196.436 366.091 199.008C365.616 201.578 365.261 204.367 365.024 207.374C364.865 208.244 364.767 209.292 364.726 210.519C364.687 211.745 364.628 212.911 364.548 214.018C364.47 215.364 364.391 216.668 364.311 217.934C368.664 214.691 372.046 212.16 374.458 210.341C376.871 208.52 378.632 207.176 379.739 206.305C380.846 205.435 381.539 204.881 381.815 204.645C382.092 204.406 382.27 204.248 382.349 204.17ZM351.496 282.251C352.841 277.741 353.829 272.283 354.463 265.875C354.858 261.445 355.055 256.856 355.055 252.109C355.055 250.053 355.016 247.956 354.936 245.821L354.343 230.632L353.751 231.225C353.592 231.383 353.375 231.581 353.097 231.818C352.821 232.056 352.563 232.293 352.326 232.53C346.709 237.83 341.705 243.665 337.314 250.034C332.924 256.402 329.462 262.671 326.931 268.841C325.902 271.373 325.072 274.044 324.439 276.851C323.806 279.66 323.49 282.409 323.49 285.099C323.49 287.867 323.885 290.517 324.676 293.05C325.468 295.581 326.773 297.835 328.592 299.814C330.808 302.186 332.904 303.373 334.882 303.373C335.673 303.373 336.424 303.215 337.136 302.898C338.877 302.187 340.498 301.099 342.002 299.635C343.505 298.171 344.85 296.491 346.036 294.591C347.223 292.694 348.272 290.676 349.181 288.539C350.091 286.404 350.863 284.307 351.496 282.251ZM322.002 143.177C323.347 138.667 324.335 133.209 324.969 126.802C325.364 122.371 325.562 117.783 325.562 113.036C325.562 110.98 325.523 108.883 325.443 106.747L324.85 91.5585L324.257 92.1512C324.098 92.3097 323.881 92.5074 323.604 92.7442C323.328 92.9824 323.07 93.2193 322.833 93.4561C317.215 98.757 312.212 104.592 307.82 110.96C303.431 117.329 299.969 123.598 297.437 129.767C296.409 132.3 295.579 134.97 294.945 137.777C294.312 140.586 293.996 143.336 293.996 146.025C293.996 148.793 294.391 151.444 295.182 153.976C295.974 156.507 297.279 158.761 299.098 160.74C301.314 163.113 303.411 164.3 305.389 164.3C306.179 164.3 306.93 164.142 307.642 163.825C309.383 163.113 311.005 162.025 312.509 160.562C314.011 159.098 315.357 157.417 316.542 155.518C317.73 153.62 318.778 151.602 319.688 149.466C320.597 147.33 321.37 145.233 322.002 143.177ZM133.556 33.6496C133.081 36.9725 132.686 40.1764 132.369 43.2615C132.052 46.3476 131.854 48.6012 131.776 50.0252C133.754 47.969 135.592 45.6146 137.294 42.9656C138.994 40.3154 140.359 37.5065 141.388 34.5395C142.415 31.5724 143.088 28.5072 143.405 25.3425C143.483 24.7106 143.524 24.0379 143.524 23.3258C143.524 20.9531 143.168 18.5788 142.456 16.2059C142.139 15.0987 141.684 13.9314 141.091 12.7048C140.498 11.4798 140.003 10.5494 139.608 9.91721C138.184 12.6852 137.016 15.9299 136.107 19.6469C135.197 23.3649 134.346 28.0336 133.556 33.6496ZM207.367 65.215C207.446 64.8982 207.683 64.7204 208.079 64.6813C208.475 64.6405 208.851 64.6813 209.207 64.7987C209.563 64.9181 209.859 65.1354 210.097 65.4518C210.255 65.6889 210.334 65.9271 210.334 66.1639V66.4008C209.859 67.983 209.226 70.1191 208.435 72.8085C207.644 75.4983 206.774 78.2872 205.825 81.1743C204.875 84.0631 203.867 86.7524 202.799 89.2445C201.731 91.7365 200.683 93.5752 199.654 94.7623C198.546 96.1063 197.043 96.8576 195.145 97.0162C194.511 97.0958 193.879 97.1353 193.246 97.1353C192.058 97.1353 190.951 96.9767 189.923 96.66C186.362 95.5527 184.109 92.9419 183.158 88.8282C182.843 87.6424 182.605 86.2184 182.446 84.5563C182.289 82.8955 182.21 81.1156 182.21 79.2166V67.707C181.261 69.6047 180.093 71.9985 178.708 74.8856C177.325 77.773 175.782 80.6207 174.08 83.4295C172.38 86.2383 170.62 88.73 168.801 90.9053C166.98 93.0806 165.2 94.3659 163.46 94.7623C162.907 94.9209 162.273 94.9991 161.561 94.9991C161.086 94.9991 160.315 94.96 159.247 94.8801C158.179 94.8018 157.289 94.6432 156.577 94.4064C154.758 93.7729 153.412 92.8043 152.542 91.4981C151.672 90.1935 151.118 88.3546 150.881 85.9802C150.803 85.2684 150.762 84.5563 150.762 83.8445C150.762 79.0989 152.108 73.5612 154.797 67.232C155.509 65.4913 156.36 63.8109 157.348 62.1892C158.337 60.5662 159.326 59.0636 160.315 57.6791C161.305 56.2943 162.313 55.1084 163.341 54.119C164.37 53.1309 165.319 52.3995 166.189 51.9241C167.772 51.0538 169.571 50.5983 171.588 50.5592C173.606 50.5201 175.168 50.9347 176.277 51.8051C176.513 51.9636 176.869 52.3782 177.344 53.0512C177.818 53.7239 178.313 54.4752 178.827 55.3061C179.342 56.1374 179.837 56.9474 180.31 57.7391C180.786 58.5296 181.141 59.1631 181.378 59.6371L184.226 53.5849C184.306 52.7149 184.86 51.9636 185.889 51.3314C186.205 51.1732 186.679 51.0146 187.313 50.8564C187.629 50.7765 187.945 50.7373 188.262 50.7373C188.578 50.7373 188.974 50.7765 189.449 50.8564C189.923 50.9347 190.457 51.1324 191.051 51.4491C191.643 51.7659 192.099 52.2004 192.414 52.7554C192.653 53.1508 192.791 53.7631 192.831 54.5943C192.87 55.4252 192.89 56.3152 192.89 57.2641C192.89 58.2131 192.85 59.1631 192.771 60.1121C192.692 61.0608 192.613 61.8529 192.534 62.4847C192.455 63.6719 192.375 65.2349 192.297 67.173C192.217 69.1101 192.178 71.1086 192.178 73.1648V76.1318C192.178 77.0805 192.178 78.2481 192.178 79.6329C192.178 81.0161 192.217 82.1442 192.297 83.0145C192.455 85.5457 192.87 87.6019 193.543 89.1841C194.216 90.7667 194.947 91.9538 195.738 92.7442C197.083 91.8739 198.388 90.1345 199.654 87.5233C200.919 84.9125 202.067 82.1246 203.095 79.1575C204.123 76.1905 205.013 73.3621 205.765 70.6727C206.517 67.983 207.051 66.1639 207.367 65.215ZM162.154 91.2025C163.975 89.9368 165.675 88.2551 167.257 86.1584C168.84 84.0631 170.303 81.7687 171.649 79.2766C172.993 76.7849 174.278 74.2325 175.504 71.623C176.731 69.0119 177.937 66.5593 179.125 64.265C177.937 62.2088 176.928 60.5271 176.098 59.2222C175.267 57.9173 174.14 56.6306 172.716 55.3652C171.608 56.3938 170.442 57.8178 169.215 59.6371C167.989 61.4561 166.823 63.5137 165.714 65.808C162.471 72.5326 160.849 78.5844 160.849 83.9635C160.849 85.8625 160.949 87.246 161.146 88.1164C161.344 88.9868 161.68 90.0154 162.154 91.2025ZM253.647 65.215C253.886 65.0567 254.242 64.9572 254.715 64.9181C255.191 64.8786 255.666 64.8982 256.139 64.9768C256.615 65.0567 257.01 65.215 257.326 65.4518C257.485 65.6104 257.563 65.7686 257.563 65.9271C257.563 66.084 257.524 66.283 257.446 66.5199C256.338 68.8928 255.191 70.9305 254.003 72.6307C252.817 74.332 251.511 75.7364 250.087 76.8436C248.663 77.9508 247.041 78.7426 245.222 79.2166C243.403 79.6916 241.346 79.9284 239.051 79.9284C238.894 80.0084 238.695 80.4429 238.458 81.2347C238.221 82.0251 237.865 82.9741 237.39 84.0826C236.915 85.1898 236.322 86.3362 235.61 87.5233C234.898 88.7105 234.028 89.7377 232.999 90.6081C232.05 91.4002 230.904 92.0516 229.558 92.5661C228.214 93.0806 226.829 93.4561 225.405 93.6946C224.535 93.8528 223.704 93.9314 222.913 93.9314C222.36 93.9314 221.626 93.8919 220.717 93.812C219.807 93.7337 218.878 93.4561 217.929 92.9824L217.335 92.5074C217.335 94.8018 217.217 97.3526 216.979 100.161C216.742 102.97 216.406 105.798 215.971 108.646C215.535 111.494 215.04 114.223 214.487 116.834C213.933 119.444 213.34 121.659 212.707 123.478C212.311 124.824 211.699 126.326 210.868 127.987C210.037 129.65 209.147 130.994 208.198 132.022C206.616 133.605 204.955 134.633 203.214 135.107C202.502 135.346 201.592 135.463 200.485 135.463H199.417C198.705 135.463 198.151 135.424 197.755 135.346C195.54 134.792 193.957 133.388 193.009 131.132C192.058 128.877 191.585 125.417 191.585 120.75C191.585 118.456 191.743 115.864 192.058 112.977C192.375 110.09 192.79 107.103 193.305 104.018C193.819 100.932 194.433 97.8667 195.145 94.8214C195.857 91.7757 196.608 88.9473 197.399 86.3362C197.874 84.6753 198.447 82.8955 199.12 80.9965C199.793 79.0989 200.485 77.239 201.197 75.4196C201.909 73.6006 202.641 71.8599 203.392 70.1991C204.143 68.5369 204.875 67.0735 205.587 65.808L206.655 64.0281C206.655 63.791 206.616 62.8606 206.537 61.2389C206.457 59.6172 206.359 57.8569 206.24 55.9593C206.121 54.0603 206.062 52.2804 206.062 50.6196V49.5515C206.062 48.5226 206.14 47.8894 206.299 47.6525C206.537 47.2572 206.971 46.9404 207.605 46.7035C208.237 46.4654 208.93 46.3264 209.681 46.2873C210.433 46.2481 211.184 46.2872 211.936 46.4063C212.687 46.5254 213.34 46.7427 213.894 47.0595C214.369 47.4548 214.705 48.028 214.903 48.7793C215.101 49.5306 215.279 50.2633 215.437 50.9755C217.573 48.8394 219.551 47.1381 221.37 45.8723C223.189 44.6069 225.523 43.9733 228.371 43.9733C234.542 43.9733 238.498 47.969 240.238 55.9593C240.475 57.0665 240.674 58.569 240.831 60.468L240.95 63.316C240.95 64.265 240.911 65.5108 240.831 67.0539C240.753 68.597 240.594 70.2972 240.357 72.1571C240.119 74.0152 239.843 75.5388 239.526 76.7246H239.882C241.781 76.7246 243.561 76.1514 245.222 75.0047C246.883 73.857 248.307 72.5717 249.494 71.1477C250.682 69.7237 251.63 68.3979 252.343 67.173C253.054 65.9467 253.49 65.2936 253.647 65.215ZM207.011 99.3902C207.091 98.6783 207.15 97.5502 207.189 96.0085C207.229 94.4651 207.249 92.7442 207.249 90.8466C207.249 88.9473 207.249 86.9893 207.249 84.9726C207.249 82.9545 207.249 81.096 207.249 79.3944C207.249 77.6945 207.229 76.29 207.189 75.1828C207.15 74.0743 207.091 73.4815 207.011 73.4029C207.011 73.323 206.971 73.2839 206.893 73.2839C206.813 73.2839 206.715 73.4225 206.596 73.6985C206.477 73.9761 206.14 74.747 205.587 76.0127C203.531 81.2347 201.889 86.4161 200.663 91.5585C199.436 96.7008 198.388 102.514 197.518 109.002C196.964 113.274 196.686 116.795 196.686 119.563C196.686 119.879 196.706 120.828 196.747 122.411C196.786 123.993 197.162 125.97 197.874 128.343C198.11 129.055 198.369 129.708 198.645 130.301C198.922 130.896 199.139 131.191 199.298 131.191C199.376 131.191 199.476 131.074 199.595 130.835C199.713 130.598 199.851 130.322 200.01 130.006C203.728 122.727 206.062 112.523 207.011 99.3902ZM223.269 90.9644C224.613 90.3322 225.701 89.0259 226.532 87.0483C227.363 85.0707 228.134 82.7764 228.846 80.1666C227.659 80.1666 226.473 80.3839 225.286 80.8184C224.099 81.2542 222.992 81.9468 221.963 82.8955C220.856 83.9244 220.224 85.229 220.065 86.8115C219.985 87.1283 219.946 87.4842 219.946 87.8796C219.946 89.0664 220.302 90.0154 221.014 90.7272C221.409 91.1226 221.765 91.3203 222.082 91.3203C222.319 91.3203 222.715 91.2025 223.269 90.9644ZM229.914 74.7078C230.309 72.6503 230.626 70.4359 230.863 68.0629C230.943 66.4807 230.982 64.8982 230.982 63.316C230.982 62.5242 230.943 61.358 230.863 59.8149C230.785 58.2732 230.528 56.4528 230.092 54.3575C229.658 52.2605 228.965 50.5002 228.015 49.0762C227.62 48.443 227.343 48.0476 227.185 47.8894H227.066C226.829 47.8894 226.473 48.0084 225.998 48.2453C224.653 48.8788 223.15 49.8865 221.489 51.271C219.827 52.6559 218.403 54.0994 217.217 55.6033C216.505 56.552 216.149 57.225 216.149 57.6201V57.7391L217.335 82.0645C217.888 81.5906 218.383 81.1743 218.819 80.8184C219.254 80.4625 219.867 80.087 220.658 79.6916C221.528 79.2166 222.755 78.663 224.337 78.0308C225.919 77.3972 227.62 77.0805 229.439 77.0805C229.519 76.9222 229.578 76.6854 229.617 76.3686C229.657 76.0532 229.756 75.4983 229.914 74.7078ZM253.41 99.3902C253.49 98.6783 253.549 97.5502 253.588 96.0085C253.629 94.4651 253.649 92.7442 253.649 90.8466C253.649 88.9473 253.649 86.9893 253.649 84.9726C253.649 82.9545 253.649 81.096 253.649 79.3944C253.649 77.6945 253.629 76.29 253.588 75.1828C253.549 74.0743 253.49 73.4815 253.41 73.4029C253.41 73.323 253.371 73.2839 253.293 73.2839C253.213 73.2839 253.115 73.4225 252.996 73.6985C252.877 73.9761 252.54 74.747 251.987 76.0127C249.93 81.2347 248.289 86.4161 247.063 91.5585C245.836 96.7008 244.788 102.514 243.917 109.002C243.364 113.274 243.086 116.795 243.086 119.563C243.086 119.879 243.106 120.828 243.146 122.411C243.186 123.993 243.561 125.97 244.273 128.343C244.51 129.055 244.768 129.708 245.044 130.301C245.322 130.896 245.539 131.191 245.697 131.191C245.776 131.191 245.875 131.074 245.995 130.835C246.112 130.598 246.251 130.322 246.41 130.006C250.128 122.727 252.462 112.523 253.41 99.3902ZM269.669 90.9644C271.013 90.3322 272.101 89.0259 272.932 87.0483C273.763 85.0707 274.534 82.7764 275.246 80.1666C274.059 80.1666 272.873 80.3839 271.686 80.8184C270.499 81.2542 269.391 81.9468 268.363 82.8955C267.255 83.9244 266.623 85.229 266.465 86.8115C266.385 87.1283 266.346 87.4842 266.346 87.8796C266.346 89.0664 266.702 90.0154 267.414 90.7272C267.809 91.1226 268.165 91.3203 268.482 91.3203C268.719 91.3203 269.115 91.2025 269.669 90.9644ZM276.314 74.7078C276.709 72.6503 277.026 70.4359 277.263 68.0629C277.343 66.4807 277.382 64.8982 277.382 63.316C277.382 62.5242 277.343 61.358 277.263 59.8149C277.184 58.2732 276.928 56.4528 276.492 54.3575C276.057 52.2605 275.365 50.5002 274.415 49.0762C274.019 48.443 273.743 48.0476 273.585 47.8894H273.466C273.229 47.8894 272.873 48.0084 272.398 48.2453C271.052 48.8788 269.55 49.8865 267.889 51.271C266.227 52.6559 264.803 54.0994 263.617 55.6033C262.905 56.552 262.549 57.225 262.549 57.6201V57.7391L263.734 82.0645C264.288 81.5906 264.783 81.1743 265.219 80.8184C265.653 80.4625 266.267 80.087 267.058 79.6916C267.928 79.2166 269.155 78.663 270.737 78.0308C272.319 77.3972 274.019 77.0805 275.839 77.0805C275.918 76.9222 275.978 76.6854 276.017 76.3686C276.057 76.0532 276.155 75.4983 276.314 74.7078Z" fill="#FF66C4"/>
</svg>
